<?xml version="1.0" encoding="utf-8"?>
<!-- Generator: Adobe Illustrator 28.1.0, SVG Export Plug-In . SVG Version: 6.00 Build 0)  -->
<svg version="1.1" id="Layer_1" xmlns="http://www.w3.org/2000/svg" xmlns:xlink="http://www.w3.org/1999/xlink" x="0px" y="0px"
	 viewBox="0 0 928.71 128" style="enable-background:new 0 0 928.71 128;" xml:space="preserve">
<g>
	<g>
		<path style="fill:#FFFFFF;" d="M73.61,68.66L23.82,18.86c-0.31-0.31-0.69-0.62-1-0.92c-0.15-0.15-0.31-0.23-0.46-0.39
			c-0.23-0.15-0.39-0.31-0.62-0.46c-0.23-0.15-0.39-0.23-0.62-0.39c-0.15-0.08-0.39-0.23-0.54-0.31c-0.23-0.08-0.46-0.23-0.62-0.31
			c-0.23-0.08-0.39-0.23-0.62-0.31c-0.23-0.08-0.39-0.15-0.62-0.23c-0.23-0.08-0.46-0.15-0.69-0.23c-0.23-0.08-0.46-0.08-0.62-0.15
			c-0.23-0.08-0.46-0.15-0.69-0.15c-0.23-0.08-0.46-0.08-0.77-0.08c-0.23,0-0.39-0.08-0.62-0.08c-0.92-0.08-1.85-0.08-2.77,0
			c-0.23,0-0.39,0.08-0.62,0.08s-0.46,0.08-0.77,0.08c-0.23,0.08-0.46,0.08-0.69,0.15c-0.23,0.08-0.46,0.08-0.62,0.15
			c-0.23,0.08-0.46,0.15-0.69,0.23c-0.23,0.08-0.46,0.15-0.62,0.23c-0.23,0.08-0.39,0.15-0.62,0.31c-0.23,0.08-0.46,0.23-0.62,0.31
			c-0.23,0.08-0.39,0.23-0.54,0.31c-0.23,0.15-0.39,0.23-0.62,0.39c-0.23,0.15-0.39,0.31-0.62,0.46c-0.15,0.15-0.31,0.23-0.46,0.39
			c-0.39,0.31-0.69,0.62-1,0.92l0,0l0,0c-0.31,0.31-0.62,0.69-0.92,1c-0.15,0.15-0.23,0.31-0.39,0.46
			c-0.15,0.23-0.31,0.39-0.46,0.62c-0.15,0.23-0.23,0.39-0.39,0.62c-0.08,0.15-0.23,0.39-0.31,0.54c-0.08,0.23-0.23,0.46-0.31,0.62
			C1.23,22.95,1.08,23.1,1,23.33c-0.08,0.23-0.15,0.39-0.23,0.62c-0.08,0.23-0.15,0.46-0.23,0.69c-0.08,0.23-0.08,0.46-0.15,0.62
			c-0.08,0.23-0.15,0.46-0.15,0.69c-0.08,0.23-0.08,0.46-0.08,0.77c0,0.23-0.08,0.39-0.08,0.62C0,27.81,0,28.27,0,28.73v70.45
			c0,7.79,6.32,14.11,14.11,14.11l0,0c7.79,0,14.11-6.32,14.11-14.11V62.72l25.74,25.74c5.47,5.47,14.41,5.47,19.96,0l0,0
			C79.09,83.07,79.09,74.13,73.61,68.66z"/>
		<path style="fill:#FFFFFF;" d="M154.47,68.66l49.79-49.79c0.31-0.31,0.69-0.62,1-0.92c0.15-0.15,0.31-0.23,0.46-0.39
			c0.23-0.15,0.39-0.31,0.62-0.46c0.23-0.15,0.39-0.23,0.62-0.39c0.15-0.08,0.39-0.23,0.54-0.31c0.23-0.08,0.46-0.23,0.62-0.31
			c0.23-0.08,0.39-0.23,0.62-0.31c0.23-0.08,0.39-0.15,0.62-0.23c0.23-0.08,0.46-0.15,0.69-0.23c0.23-0.08,0.46-0.08,0.62-0.15
			c0.23-0.08,0.46-0.15,0.69-0.15c0.23-0.08,0.46-0.08,0.77-0.08c0.23,0,0.39-0.08,0.62-0.08c0.93-0.08,1.85-0.08,2.77,0
			c0.23,0,0.39,0.08,0.62,0.08c0.23,0,0.46,0.08,0.77,0.08c0.23,0.08,0.46,0.08,0.69,0.15c0.23,0.08,0.46,0.08,0.62,0.15
			c0.23,0.08,0.46,0.15,0.69,0.23c0.23,0.08,0.46,0.15,0.62,0.23c0.23,0.08,0.39,0.15,0.62,0.31c0.23,0.08,0.46,0.23,0.62,0.31
			c0.23,0.08,0.39,0.23,0.54,0.31c0.23,0.15,0.39,0.23,0.62,0.39c0.23,0.15,0.39,0.31,0.62,0.46c0.15,0.15,0.31,0.23,0.46,0.39
			c0.39,0.31,0.69,0.62,1,0.92l0,0l0,0c0.31,0.31,0.62,0.69,0.93,1c0.15,0.15,0.23,0.31,0.39,0.46c0.15,0.23,0.31,0.39,0.46,0.62
			c0.15,0.23,0.23,0.39,0.39,0.62c0.08,0.15,0.23,0.39,0.31,0.54c0.08,0.23,0.23,0.46,0.31,0.62c0.08,0.23,0.23,0.39,0.31,0.62
			c0.08,0.23,0.15,0.39,0.23,0.62c0.08,0.23,0.15,0.46,0.23,0.69c0.08,0.23,0.08,0.46,0.15,0.62c0.08,0.23,0.15,0.46,0.15,0.69
			c0.08,0.23,0.08,0.46,0.08,0.77c0,0.23,0.08,0.39,0.08,0.62c0.08,0.46,0.08,0.92,0.08,1.39v70.45c0,7.79-6.32,14.11-14.11,14.11
			l0,0c-7.79,0-14.11-6.32-14.11-14.11V62.72l-25.74,25.74c-5.47,5.47-14.41,5.47-19.96,0l0,0C149,83.07,149,74.13,154.47,68.66z"/>
		<path style="fill:#FFFFFF;" d="M123.41,8.38l-44.4,99.82c-3.16,7.09,0,15.42,7.17,18.58l0,0c7.09,3.16,15.42,0,18.58-7.17
			l44.4-99.82c3.16-7.09,0-15.42-7.17-18.58l0,0C134.89-1.95,126.57,1.29,123.41,8.38z"/>
	</g>
	<g>
		<path style="fill:#FFFFFF;" d="M375.75,21.62c-1.61-1.11-4.05-1.65-7.47-1.65c-2.08,0-3.65,0.09-4.82,0.27
			c-1.26,0.2-2.29,0.56-3.12,1.08c-0.82,0.51-1.61,1.24-2.42,2.26l-27.49,36.98l-27.49-37.11c-0.62-0.62-1.2-1.18-1.73-1.67
			c-0.69-0.63-1.68-1.08-3.02-1.4c-1.23-0.28-2.94-0.42-5.23-0.42c-3.5,0-5.99,0.54-7.6,1.65c-1.64,1.13-2.68,2.58-3.1,4.3
			c-0.37,1.52-0.55,3.17-0.55,4.91v71.29c0,1.82,0.18,3.56,0.55,5.16c0.41,1.82,1.43,3.31,3.02,4.44c1.57,1.12,4,1.66,7.42,1.66
			c3.5,0,5.97-0.54,7.55-1.66c1.59-1.13,2.61-2.6,3.02-4.37c0.37-1.57,0.55-3.24,0.55-4.97v-42.8l17.13,24.29
			c0.44,0.53,0.97,1.15,1.58,1.85c0.71,0.82,1.7,1.53,2.93,2.12c1.27,0.61,2.91,0.9,5.03,0.9c2.02,0,3.63-0.29,4.9-0.9
			c1.24-0.6,2.24-1.34,2.96-2.22c0.61-0.74,1.09-1.33,1.49-1.83l17.2-24.35v42.68c0,1.73,0.18,3.45,0.55,5.08
			c0.42,1.87,1.46,3.39,3.11,4.52c1.61,1.11,4.06,1.65,7.47,1.65c3.5,0,5.98-0.54,7.6-1.65c1.64-1.13,2.69-2.6,3.1-4.38
			c0.37-1.57,0.55-3.24,0.55-4.97V31.1c0-1.73-0.18-3.42-0.55-5.03C378.44,24.25,377.39,22.75,375.75,21.62z"/>
		<path style="fill:#FFFFFF;" d="M443.77,49.14c-5.25-3.1-11.18-4.67-17.63-4.67c-4.75,0-9.28,0.93-13.46,2.78
			c-4.16,1.83-7.9,4.4-11.12,7.62c-3.23,3.23-5.77,6.97-7.56,11.13c-1.8,4.17-2.71,8.74-2.71,13.58c0,5.19,1,9.99,2.98,14.26
			c1.97,4.26,4.7,7.97,8.11,11.02c3.39,3.04,7.22,5.41,11.38,7.07c4.17,1.66,8.42,2.5,12.64,2.5c4.12,0,8.28-0.79,12.36-2.36
			c4.08-1.57,7.84-3.9,11.2-6.95c3.36-3.05,6.09-6.75,8.1-11c2.02-4.27,3.05-9.2,3.05-14.66c0-6.44-1.59-12.4-4.73-17.7
			C453.25,56.47,449.01,52.23,443.77,49.14z M419.67,68.25c1.84-1.1,3.98-1.65,6.35-1.65c2.56,0,4.84,0.54,6.77,1.61
			c1.92,1.06,3.45,2.55,4.55,4.43c1.1,1.89,1.66,4.14,1.66,6.68c0,2.94-0.67,5.38-1.99,7.24c-1.35,1.9-3.03,3.35-5.01,4.3
			c-4,1.92-7.75,1.89-11.73,0.06c-1.96-0.9-3.61-2.33-4.9-4.27c-1.29-1.91-1.94-4.34-1.94-7.2c0-2.46,0.58-4.68,1.72-6.61
			C416.29,70.9,417.81,69.35,419.67,68.25z"/>
		<path style="fill:#FFFFFF;" d="M534.93,17.77c-1.57-1.06-4.03-1.58-7.52-1.58c-3.51,0-5.97,0.54-7.5,1.67
			c-1.57,1.15-2.51,2.68-2.77,4.53c-0.22,1.56-0.34,3.22-0.34,4.93l0.01,23.23c-0.98-0.73-2.01-1.38-3.1-1.96
			c-3.33-1.78-7.23-2.68-11.59-2.68c-4.07,0-8.03,0.92-11.74,2.73c-3.69,1.8-7.03,4.28-9.93,7.36c-2.91,3.09-5.23,6.67-6.89,10.66
			c-1.66,4-2.5,8.25-2.5,12.66c0,4.57,0.84,8.96,2.5,13.04c1.65,4.07,3.95,7.72,6.81,10.86c2.87,3.14,6.23,5.63,9.96,7.38
			c3.75,1.76,7.72,2.66,11.79,2.66c4.53,0,8.52-0.95,11.87-2.83c1.17-0.66,2.28-1.4,3.33-2.23c0.62,1.52,1.59,2.71,2.9,3.56
			c1.7,1.1,4.09,1.63,7.31,1.63c3.41,0,5.84-0.54,7.42-1.66c1.6-1.14,2.6-2.64,2.97-4.47c0.32-1.59,0.48-3.28,0.48-5V27.19
			c0-1.81-0.16-3.51-0.48-5.07C537.55,20.33,536.54,18.86,534.93,17.77z M514.56,85.61c-1.06,1.82-2.46,3.28-4.16,4.34
			c-3.29,2.07-7.75,2.15-11.44-0.02c-1.81-1.06-3.23-2.51-4.25-4.31c-1.02-1.8-1.54-3.83-1.54-6.04c0-2.3,0.5-4.36,1.48-6.12
			c0.97-1.75,2.35-3.15,4.1-4.16c1.76-1.02,3.73-1.53,5.84-1.53c2.2,0,4.18,0.51,5.89,1.53c1.72,1.02,3.11,2.43,4.12,4.19
			c1.02,1.76,1.53,3.81,1.53,6.1C516.15,81.78,515.61,83.81,514.56,85.61z"/>
		<path style="fill:#FFFFFF;" d="M582.75,92.47c-2.26-0.54-4.68-0.34-5.92-0.65c-0.42-0.11-0.72-0.29-0.95-0.59
			c-0.26-0.35-0.45-0.89-0.55-1.59c-0.12-0.85-0.18-1.95-0.18-3.28v-59.3c0-1.82-0.18-3.53-0.55-5.1c-0.42-1.77-1.43-3.24-3.02-4.36
			c-1.58-1.12-4-1.66-7.42-1.66c-3.41,0-5.85,0.54-7.47,1.65c-1.65,1.14-2.68,2.62-3.05,4.41c-0.32,1.55-0.48,3.25-0.48,5.07v60.21
			c0,4.33,0.29,8.02,0.87,10.98c0.59,3.06,1.56,5.6,2.86,7.55c1.32,1.98,3.07,3.57,5.2,4.7c2.07,1.1,4.57,1.87,7.44,2.28
			c2.78,0.4,6.01,0.6,9.62,0.6c1.22,0,2.43-0.14,3.61-0.43c1.43-0.34,2.63-1.37,3.58-3.06c0.9-1.59,1.33-4,1.33-7.38
			c0-3.3-0.44-5.63-1.35-7.14C585.36,93.78,584.16,92.81,582.75,92.47z"/>
		<path style="fill:#FFFFFF;" d="M617.57,47.57c-1.57-1.12-4-1.66-7.42-1.66c-3.49,0-5.97,0.51-7.58,1.57
			c-1.66,1.09-2.7,2.56-3.07,4.36c-0.32,1.54-0.48,3.25-0.48,5.07v45.48c0,1.74,0.16,3.42,0.48,5c0.37,1.84,1.37,3.33,2.99,4.42
			c1.57,1.06,4.03,1.58,7.53,1.58c3.49,0,5.94-0.49,7.5-1.5c1.63-1.05,2.64-2.52,3.01-4.37c0.32-1.6,0.48-3.28,0.48-5V57.16
			c0-1.89-0.16-3.64-0.48-5.2C620.17,50.18,619.17,48.7,617.57,47.57z"/>
		<path style="fill:#FFFFFF;" d="M617.75,17.84c-1.62-1.11-4.1-1.65-7.6-1.65c-3.58,0-6.1,0.51-7.71,1.57
			c-1.66,1.09-2.71,2.57-3.13,4.4c-0.37,1.6-0.55,3.38-0.55,5.29c0,1.82,0.16,3.57,0.48,5.19c0.37,1.88,1.39,3.41,3.05,4.55
			c1.61,1.11,4.14,1.65,7.73,1.65c3.58,0,6.1-0.51,7.71-1.57c1.67-1.1,2.7-2.61,3.07-4.5c0.32-1.64,0.48-3.38,0.48-5.18
			s-0.16-3.55-0.48-5.19C620.44,20.51,619.41,18.98,617.75,17.84z"/>
		<path style="fill:#FFFFFF;" d="M694.65,55.1c-2.37-3-5.3-5.34-8.72-6.93c-3.41-1.59-7.33-2.39-11.66-2.39
			c-2.11,0-4.27,0.32-6.41,0.96c-2.13,0.64-4.16,1.53-6.02,2.67c-1.6,0.98-2.99,2.07-4.14,3.26c-0.1-0.75-0.3-1.52-0.6-2.32
			c-0.49-1.31-1.53-2.42-3.08-3.3c-1.51-0.85-3.7-1.26-6.73-1.26c-3.49,0-5.94,0.49-7.5,1.5c-1.61,1.04-2.65,2.45-3.07,4.19
			c-0.37,1.52-0.55,3.17-0.55,4.91v45.87c0,1.73,0.16,3.41,0.48,5c0.37,1.84,1.37,3.33,2.99,4.42c1.57,1.06,4.03,1.58,7.53,1.58
			c3.48,0,5.94-0.49,7.5-1.5c1.62-1.05,2.64-2.52,3.01-4.37c0.32-1.59,0.48-3.27,0.48-5V78.67c0-2.3,0.46-4.3,1.35-5.93
			c0.88-1.61,2.15-2.9,3.77-3.83c1.63-0.93,3.62-1.4,5.91-1.4c2.29,0,4.23,0.45,5.77,1.34c1.53,0.88,2.65,2.1,3.42,3.7
			c0.79,1.65,1.19,3.71,1.19,6.12v23.59c0,1.73,0.18,3.42,0.55,5.03c0.42,1.83,1.44,3.3,3.05,4.39c1.57,1.06,4.07,1.58,7.66,1.58
			c3.48,0,5.94-0.49,7.5-1.5c1.63-1.05,2.64-2.52,3.01-4.37c0.32-1.6,0.48-3.28,0.48-5V78.67c0-4.7-0.61-9.1-1.81-13.06
			C698.8,61.61,697,58.08,694.65,55.1z"/>
		<path style="fill:#FFFFFF;" d="M772.13,21.5c-1.58-1.12-4.09-1.66-7.68-1.66c-3.5,0-5.99,0.54-7.6,1.65
			c-1.65,1.14-2.68,2.62-3.05,4.41c-0.32,1.55-0.48,3.25-0.48,5.07v71.29c0,1.73,0.16,3.43,0.48,5.05c0.37,1.89,1.4,3.41,3.07,4.5
			c1.61,1.05,4.04,1.57,7.45,1.57c3.58,0,6.09-0.52,7.66-1.58c1.6-1.09,2.63-2.57,3.05-4.39c0.37-1.61,0.55-3.3,0.55-5.03V31.1
			c0-1.89-0.16-3.64-0.48-5.2C774.73,24.12,773.73,22.64,772.13,21.5z"/>
		<path style="fill:#FFFFFF;" d="M848.43,55.1c-2.37-3-5.3-5.34-8.72-6.93c-3.41-1.59-7.33-2.39-11.66-2.39
			c-2.11,0-4.27,0.32-6.41,0.96c-2.13,0.64-4.16,1.53-6.02,2.67c-1.6,0.98-2.99,2.07-4.14,3.26c-0.1-0.75-0.3-1.52-0.6-2.32
			c-0.49-1.31-1.53-2.42-3.08-3.3c-1.51-0.85-3.7-1.26-6.73-1.26c-3.49,0-5.94,0.49-7.5,1.5c-1.61,1.04-2.65,2.45-3.07,4.19
			c-0.37,1.52-0.55,3.17-0.55,4.91v45.87c0,1.73,0.16,3.41,0.48,5c0.37,1.84,1.37,3.33,2.99,4.42c1.57,1.06,4.03,1.58,7.53,1.58
			c3.48,0,5.94-0.49,7.5-1.5c1.62-1.05,2.64-2.52,3.01-4.37c0.32-1.59,0.48-3.27,0.48-5V78.67c0-2.3,0.46-4.3,1.35-5.93
			c0.88-1.61,2.15-2.9,3.77-3.83c1.63-0.93,3.62-1.4,5.91-1.4c2.29,0,4.23,0.45,5.77,1.34c1.53,0.88,2.65,2.1,3.42,3.7
			c0.79,1.65,1.19,3.71,1.19,6.12v23.59c0,1.73,0.18,3.42,0.55,5.03c0.42,1.83,1.44,3.3,3.05,4.39c1.57,1.06,4.07,1.58,7.66,1.58
			c3.48,0,5.94-0.49,7.5-1.5c1.63-1.05,2.64-2.52,3.01-4.37c0.32-1.6,0.48-3.28,0.48-5V78.67c0-4.7-0.61-9.1-1.81-13.06
			C852.57,61.61,850.77,58.08,848.43,55.1z"/>
		<path style="fill:#FFFFFF;" d="M928.63,97.92c-0.24-1.76-1.14-3.67-2.66-5.67c-1.65-2.11-3.15-3.62-4.56-4.61
			c-2.8-1.96-5.61-2.04-8.1-0.57c-0.97,0.58-1.99,1.22-3,1.9l-1.83,1.11c-0.7,0.43-1.55,0.8-2.54,1.12
			c-0.96,0.31-2.13,0.46-3.47,0.46c-2.2,0-4.2-0.53-5.95-1.58c-1.77-1.06-3.21-2.52-4.27-4.33c-1.06-1.8-1.59-3.87-1.59-6.16
			c0-2.37,0.53-4.49,1.59-6.29c1.06-1.8,2.51-3.23,4.3-4.25c1.81-1.02,3.89-1.54,6.18-1.54c1.32,0,2.48,0.19,3.47,0.57
			c1.05,0.41,2.05,0.91,2.96,1.51c1.02,0.67,2.09,1.31,3.2,1.93c1.19,0.67,2.52,1.15,4.02,1.45c3.09,0.41,6.1-1.43,8.96-5.43
			c0.82-1.1,1.51-2.18,2.06-3.23c0.59-1.14,0.94-2.27,1.05-3.44c0.1-2.17-0.54-3.97-1.92-5.36c-1.17-1.16-2.52-2.34-3.91-3.39
			c-0.86-0.86-2.2-1.82-4.09-2.93c-1.86-1.09-4.15-2.03-6.79-2.79c-5.77-1.66-13.4-1.67-20.95,1.07c-4.07,1.48-7.85,3.67-11.25,6.54
			c-3.41,2.88-6.19,6.47-8.26,10.69c-2.07,4.23-3.12,9.19-3.12,14.74c0,5.55,1.05,10.53,3.12,14.8c2.07,4.27,4.87,7.91,8.33,10.83
			c3.44,2.9,7.24,5.13,11.32,6.6c4.07,1.47,8.13,2.22,12.08,2.22c3.32,0,6.35-0.41,9.02-1.22c2.63-0.81,4.9-1.71,6.74-2.7
			c1.88-1.01,3.17-1.83,3.81-2.4c2.12-1.39,3.73-2.86,4.77-4.37C928.45,101.57,928.89,99.79,928.63,97.92z"/>
	</g>
</g>
</svg>
